# xmcd CD database file
#
# Track frame offsets:
#	150
#	35520
#	55962
#	99367
#	140232
#	174265
#	195200
#
# Disc length: 2874 seconds
#
# Revision: 1
# Processed by: cddbd v1.5.1PL0 Copyright (c) Steve Scherf et al.
# Submitted via: CDex 1.51
#
DISCID=570b3807
DTITLE=Peter Gullin Trio with Linda Pettersson - From Time to Time
DYEAR=2003
DGENRE=Jazz
TTITLE0=From Time to Time
TTITLE1=The Swede
TTITLE2=You Are Everything
TTITLE3=Chan's Song (Never Said)
TTITLE4=Dag för dag
TTITLE5=Children's Fairytale
TTITLE6=Blackbird
EXTD=YEAR: 2003
EXTT0=
EXTT1=
EXTT2=
EXTT3=
EXTT4=
EXTT5=
EXTT6=
PLAYORDER=
